<svg width="101" height="101" fill="none" xmlns="http://www.w3.org/2000/svg"><g opacity=".8" fill="#153862"><path d="M82.467 67.38c-1.803-10.393-9.441-25.657-22.896-33.28-13.504-7.651-30.555-6.3-40.317-2.534a2.166 2.166 0 00-1.354 2.39C19.744 44.6 27.508 59.71 40.796 67.237c13.76 7.796 30.902 6.164 40.317 2.534a2.166 2.166 0 001.354-2.39zm-19.483-9.46c-4 7.058-12.995 9.547-20.053 5.548-7.058-3.999-9.547-12.994-5.548-20.052 3.999-7.058 12.994-9.547 20.052-5.548 7.06 4 9.547 12.995 5.549 20.052zM22.579 35.03c3.37-1.004 11.179-2.863 20.087-1.85a18.994 18.994 0 00-11.348 20.025c-4.147-5.406-7.147-11.933-8.74-18.176zM57.7 68.155a18.995 18.995 0 0011.35-20.024c4.147 5.406 7.146 11.934 8.739 18.176-3.37 1.003-11.179 2.863-20.088 1.849z"/><path d="M43.777 47.038c-2.002 3.533-.756 8.036 2.777 10.037 3.532 2.002 8.035.756 10.036-2.777 2.002-3.533.756-8.035-2.777-10.037-3.532-2.001-8.035-.755-10.036 2.777zm9.044 5.125a3.035 3.035 0 01-4.132 1.143 3.035 3.035 0 01-1.144-4.132 3.035 3.035 0 014.133-1.144 3.035 3.035 0 011.144 4.133zM63.706 26.8a2.165 2.165 0 002.952-.817l2.492-4.397a2.166 2.166 0 00-3.77-2.135l-2.49 4.397a2.166 2.166 0 00.816 2.952zm9.816 8.89a2.166 2.166 0 002.969.753l4.999-2.976a2.166 2.166 0 10-2.216-3.722l-4.999 2.976a2.166 2.166 0 00-.753 2.97zm-24.659-14.9a2.166 2.166 0 004.332-.012l-.017-5.817a2.166 2.166 0 00-4.331.012l.016 5.818zM36.66 74.537a2.166 2.166 0 00-2.951.816l-2.492 4.397a2.166 2.166 0 003.77 2.135l2.49-4.396a2.166 2.166 0 00-.816-2.952zm-9.815-8.89a2.166 2.166 0 00-2.969-.754l-4.999 2.977a2.166 2.166 0 002.216 3.721l4.999-2.976a2.166 2.166 0 00.753-2.968zm24.659 14.899a2.166 2.166 0 00-4.332.012l.017 5.818a2.166 2.166 0 104.331-.012l-.017-5.818z"/></g></svg>