<svg width="107" height="108" fill="none" xmlns="http://www.w3.org/2000/svg"><g clip-path="url(#clip0)" fill="#000"><path d="M91.36 8.286c7.079 4.098 11.474 11.719 11.474 19.888a22.793 22.793 0 01-1.749 8.813 1.78 1.78 0 001.646 2.468c.699 0 1.363-.411 1.644-1.096a26.302 26.302 0 002.026-10.185c0-9.436-5.079-18.24-13.254-22.973a1.778 1.778 0 00-2.436.65 1.779 1.779 0 00.65 2.435zM79.861 54.243h.005c4.11 0 8.049-.74 11.708-2.542.885-.435 1.247-1.33.813-2.213-.433-.882-1.508-1.359-2.388-.929-3.167 1.559-6.575 2.117-10.132 2.117h-.006c-7.68 0-14.823-3.666-19.105-10.095-.545-.823-1.657-.873-2.471-.325-.82.547-1.044 1.537-.498 2.358 4.945 7.427 13.195 11.629 22.074 11.629zm17.844-11.597a23.356 23.356 0 01-2.266 2.41 1.782 1.782 0 102.418 2.622 26.572 26.572 0 002.614-2.783 1.781 1.781 0 00-.258-2.508 1.78 1.78 0 00-2.508.259zm-23.659-5.338c.385 0 .776-.125 1.104-.382 6.421-5.071 10.104-12.667 10.104-20.84 0-3.673-.776-7.306-2.261-10.667.758.101 1.51.242 2.25.42a1.783 1.783 0 10.83-3.468 26.801 26.801 0 00-3.767-.62 1.75 1.75 0 00-1.187.318 1.785 1.785 0 00-2.692 2.27 22.9 22.9 0 013.26 11.748c0 7.074-3.188 13.65-8.749 18.038a1.785 1.785 0 001.108 3.183z"/><path d="M64.496 41.943c.138 0 .277-.016.416-.05a26.41 26.41 0 003.641-1.154 1.783 1.783 0 10-1.323-3.313 22.896 22.896 0 01-3.147.998 1.784 1.784 0 00.413 3.519zm-39.069 6.146l4.563-4.446a1.781 1.781 0 00-.99-3.04l-6.304-.918-2.819-5.713c-.6-1.22-2.598-1.22-3.197 0l-2.82 5.713-6.304.917a1.787 1.787 0 00-1.441 1.215 1.785 1.785 0 00.451 1.826l4.564 4.446-1.077 6.28a1.78 1.78 0 002.585 1.88l5.641-2.964 5.64 2.964a1.778 1.778 0 001.877-.135 1.79 1.79 0 00.708-1.744l-1.077-6.281zm-3.16-1.9c-.42.41-.612 1-.512 1.579l.626 3.643-3.273-1.72a1.773 1.773 0 00-1.658 0l-3.272 1.72.622-3.643c.1-.578-.093-1.17-.512-1.579l-2.645-2.578 3.656-.532a1.783 1.783 0 001.343-.975l1.635-3.314 1.636 3.314c.26.526.761.891 1.343.975l3.655.532-2.644 2.578zm12.829-31.176a1.783 1.783 0 102.49-2.554l-.974-.948 3.656-.532a1.783 1.783 0 001.343-.975l1.635-3.314 1.635 3.314c.26.526.762.891 1.343.975l3.654.53-2.645 2.579c-.419.41-.611 1-.511 1.578l.625 3.643L44.854 18a1.78 1.78 0 00-2.407.75 1.78 1.78 0 00.749 2.407l5.69 2.992a1.777 1.777 0 001.878-.136 1.786 1.786 0 00.708-1.744l-1.077-6.28 4.564-4.446a1.781 1.781 0 00-.99-3.04l-6.304-.918-2.82-5.713c-.599-1.22-2.598-1.22-3.197 0l-2.82 5.713-6.303.917a1.787 1.787 0 00-1.441 1.215 1.786 1.786 0 00.45 1.826l3.562 3.47zm2.511 9.134l.932-.49a1.784 1.784 0 00.357-2.909l.06-.353a1.78 1.78 0 00-1.455-2.058 1.788 1.788 0 00-2.057 1.455l-.425 2.477a1.785 1.785 0 00.708 1.746 1.793 1.793 0 001.88.132zm10.96 26.839a30.916 30.916 0 00-3.254-1.933 1.782 1.782 0 00-2.4.774 1.782 1.782 0 00.773 2.4 27.68 27.68 0 012.875 1.71 1.78 1.78 0 001.002.31 1.786 1.786 0 001.004-3.26zm15.606 53.053l-34.322-.163a32.26 32.26 0 01-1.268-.116 1.783 1.783 0 00-1.98 1.571c-.114.979.585 1.884 1.563 1.998.469.057.945.135 1.546.175l34.443.238h.01c.98 0 1.779-.861 1.782-1.843.006-.985-.788-1.855-1.774-1.86zm25.883-21.263c0-.986-.797-1.783-1.783-1.783h-3.58a1.782 1.782 0 10.001 3.566h3.579c.986 0 1.783-.797 1.783-1.783zm9.531-.474a1.785 1.785 0 00-1.525 3.226c3.363 1.59 5.371 4.897 5.371 8.843 0 5.684-4.126 9.812-9.831 9.812-.123 0-1.33 0-3.31-.01l-1.072.003h-.009a1.775 1.775 0 10-.009 3.549l1.072.005 3.351.016c7.624 0 13.375-5.751 13.375-13.376 0-5.361-2.771-9.871-7.413-12.068zm-15.3-8.159a1.784 1.784 0 001.174-2.233c-2.331-7.5-8.255-13.146-15.465-14.735-5.022-1.11-9.905-.703-14.03 1.154a1.782 1.782 0 00-2.258 2.627c.129.181.255.365.378.55a1.783 1.783 0 002.33.577c3.641-1.964 8.117-2.462 12.816-1.425 5.958 1.312 10.873 6.03 12.824 12.31a1.782 1.782 0 002.231 1.175zm-49.79-28.316c-.428-.046-.856-.08-1.29-.107-.968-.042-1.827.689-1.886 1.673a1.78 1.78 0 001.673 1.887c.382.023.758.055 1.132.093a1.785 1.785 0 001.96-1.587 1.782 1.782 0 00-1.589-1.959zM3.567 75.643c0-5.413 1.557-10.622 4.503-15.064a1.782 1.782 0 00-.5-2.472 1.777 1.777 0 00-2.471.5C1.762 63.634 0 69.525 0 75.642c0 6.748 2.126 13.137 6.149 18.48a1.783 1.783 0 002.85-2.147C5.446 87.26 3.567 81.611 3.567 75.643zm74.917 28.508l-3.582.027h-.007c-.983 0-1.78.767-1.784 1.75a1.76 1.76 0 001.776 1.763l3.576.052h.01c.982 0 1.779-.804 1.784-1.785a1.794 1.794 0 00-1.773-1.807zm-59.444-3.33a25.833 25.833 0 01-2.837-1.745 1.785 1.785 0 10-2.063 2.912 29.9 29.9 0 003.232 1.986 1.786 1.786 0 002.411-.741 1.785 1.785 0 00-.742-2.412z"/></g><defs><clipPath id="clip0"><path fill="#fff" transform="translate(0 .852)" d="M0 0h107v107H0z"/></clipPath></defs></svg>