<svg width="107" height="108" fill="none" xmlns="http://www.w3.org/2000/svg"><path d="M103.474 53.561C93.621 34.455 74.472 22.586 53.5 22.586a54.591 54.591 0 00-25.863 6.439l1.567 2.953A51.285 51.285 0 0153.5 25.93c19.433 0 37.21 10.858 46.598 28.397-6.84 12.768-18.468 22.334-32.023 26.311l.94 3.209c14.701-4.313 27.26-14.793 34.459-28.753a1.674 1.674 0 000-1.533zM53.5 82.725c-19.433 0-37.21-10.858-46.598-28.397A54.447 54.447 0 0125.965 33.85l-1.774-2.834A57.833 57.833 0 003.528 53.56a1.672 1.672 0 000 1.533c9.852 19.106 29 30.975 49.972 30.975 4.06.001 8.106-.445 12.068-1.33l-.732-3.263a51.937 51.937 0 01-11.336 1.25zm31.064-68.498h19.092v-3.344H83.593a1.671 1.671 0 00-1.451.842l-6.688 11.703 2.904 1.66 6.206-10.861z" fill="#000"/><path d="M91.953 17.57h11.703v3.344H91.953V17.57zm-6.687 0h3.343v3.344h-3.343V17.57zM98.64 4.195h5.016V7.54h-5.015V4.195zm-15.046 0h11.703V7.54H83.594V4.195zM22.436 94.476H3.344v3.344h20.062a1.671 1.671 0 001.452-.842l6.687-11.703-2.903-1.66-6.206 10.861z" fill="#000"/><path d="M3.344 87.79h11.703v3.343H3.344v-3.344zm15.046 0h3.344v3.343h-3.343v-3.344zM3.344 101.164h5.015v3.344H3.344v-3.344zm8.359 0h11.703v3.344H11.703v-3.344zm64.461-57.561a24.974 24.974 0 101.375 3.584l-3.204.954a21.737 21.737 0 11-1.192-3.103l3.021-1.435z" fill="#000"/><path d="M50.156 45.992H53.5v3.344h-3.344v-3.344zm1.672 6.688h3.344v3.343h-3.344V52.68zm-5.015 5.015h3.343v3.344h-3.343v-3.344zm11.703-3.343h3.343v3.343h-3.343v-3.343z" fill="#000"/><path d="M71.89 57.695v-6.687h-3.343v1.672H66.77a13.31 13.31 0 00-2.71-6.526l1.26-1.26 1.183 1.182 2.364-2.364-4.729-4.729-2.363 2.364 1.182 1.182-1.26 1.26a13.31 13.31 0 00-6.526-2.708v-1.776h1.672V35.96h-6.688v3.344h1.672v1.776a13.31 13.31 0 00-6.525 2.71l-1.26-1.261 1.182-1.182-2.365-2.364-4.728 4.728 2.364 2.364 1.182-1.182 1.26 1.26a13.31 13.31 0 00-2.709 6.526h-1.776v-1.672H35.11v6.687h3.344v-1.672h1.776a13.31 13.31 0 002.71 6.526l-1.26 1.26-1.183-1.182-2.364 2.364 4.729 4.73 2.363-2.365-1.182-1.182 1.26-1.26a13.31 13.31 0 006.526 2.708v1.776h-1.672v3.344h6.688v-3.344h-1.672v-1.776a13.31 13.31 0 006.525-2.71l1.26 1.261-1.182 1.182 2.365 2.365 4.728-4.729-2.364-2.364-1.182 1.183-1.26-1.26a13.31 13.31 0 002.709-6.527h1.776v1.672h3.344zM53.5 64.383a10.031 10.031 0 1110.031-10.031A10.042 10.042 0 0153.5 64.382z" fill="#000"/></svg>