<svg width="106" height="107" fill="none" xmlns="http://www.w3.org/2000/svg"><g clip-path="url(#clip0)" fill="#000"><path d="M24.9 11.99c.304 0 .603-.084.863-.244a1.657 1.657 0 00-1.727-2.826l-.004.002a1.656 1.656 0 00.867 3.068z"/><path d="M104.919 40.504a47.297 47.297 0 00-3.101-9.343 48.95 48.95 0 00-4.9-8.447 50.878 50.878 0 00-6.48-7.347A52.833 52.833 0 0082.59 9.31a54.16 54.16 0 00-8.995-4.57 55.476 55.476 0 00-9.936-2.883A56.718 56.718 0 0053 .852h-.002a56.66 56.66 0 00-11.94 1.267 54.968 54.968 0 00-10.989 3.61 1.656 1.656 0 101.36 3.02l.007-.001A52.16 52.16 0 0153 4.164c13.291 0 25.784 4.838 35.175 13.62 9.357 8.76 14.51 20.393 14.513 32.755.008 12.457-5.456 25.978-14.615 36.17-9.749 10.853-22.2 16.83-35.063 16.83h-.02c-12.863 0-25.314-5.977-35.063-16.83C8.767 76.518 3.304 62.997 3.313 50.54 3.315 37.06 9.59 24.265 20.53 15.435a1.655 1.655 0 00-.245-2.744 1.656 1.656 0 00-1.833.164 51.411 51.411 0 00-7.64 7.602 49.257 49.257 0 00-5.815 8.992A46.9 46.9 0 000 50.539c.01 3.461.372 6.912 1.079 10.3a57.377 57.377 0 003.078 10.057 61.944 61.944 0 004.865 9.474 62.94 62.94 0 006.44 8.55 59.413 59.413 0 007.817 7.286 54.019 54.019 0 009.001 5.664 48.385 48.385 0 009.977 3.673 44.746 44.746 0 0021.486 0 48.386 48.386 0 009.977-3.673 54.019 54.019 0 009.001-5.664 59.413 59.413 0 007.818-7.285 62.935 62.935 0 006.439-8.55 61.965 61.965 0 004.865-9.475 57.364 57.364 0 003.078-10.057 51.072 51.072 0 001.079-10.3 47.09 47.09 0 00-1.081-10.035z"/><path d="M26.5 33.977a1.656 1.656 0 001.656-1.657 4.968 4.968 0 119.938 0 1.656 1.656 0 103.312 0 8.28 8.28 0 10-16.562 0 1.656 1.656 0 001.656 1.657zm41.406-1.657a4.968 4.968 0 119.938 0 1.656 1.656 0 103.312 0 8.28 8.28 0 10-16.562 0 1.656 1.656 0 103.312 0zm-53 12.422a1.656 1.656 0 001.656 1.656c1.807.026 3.59-.415 5.176-1.279.808 5.627 3.99 10.816 9.165 14.842 5.92 4.605 13.767 7.14 22.097 7.14 8.33 0 16.177-2.535 22.097-7.14 5.176-4.026 8.358-9.215 9.166-14.842a10.512 10.512 0 005.174 1.28 1.657 1.657 0 000-3.313 6.813 6.813 0 01-6.688-4.596 1.656 1.656 0 10-3.185.91 9.417 9.417 0 001.59 3.03C81.031 54.224 68.45 63.79 53 63.79s-28.032-9.565-28.153-21.36a9.416 9.416 0 001.59-3.029 1.656 1.656 0 10-3.183-.92 6.814 6.814 0 01-6.692 4.606 1.656 1.656 0 00-1.656 1.656z"/></g><defs><clipPath id="clip0"><path fill="#fff" transform="translate(0 .852)" d="M0 0h106v106H0z"/></clipPath></defs></svg>