<svg width="27" height="27" fill="none" xmlns="http://www.w3.org/2000/svg"><circle cx="13.263" cy="13.263" r="13.263" fill="#fff"/><path d="M17.627 7.958H9.562c-.91 0-1.604.694-1.604 1.604v8.065c0 .91.694 1.605 1.604 1.605h8.065c.91 0 1.605-.694 1.605-1.605V9.562c0-.91-.694-1.604-1.605-1.604zm-4.032 9.019c1.864 0 3.382-1.474 3.382-3.252 0-.304-.043-.65-.13-.91h.954v4.595a.434.434 0 01-.434.434H9.822a.435.435 0 01-.433-.434v-4.64h.997c-.086.304-.13.608-.13.912-.043 1.82 1.474 3.295 3.339 3.295zm0-1.301c-1.214 0-2.168-.954-2.168-2.125 0-1.17.954-2.124 2.168-2.124 1.214 0 2.168.954 2.168 2.124 0 1.214-.954 2.125-2.168 2.125zm4.162-4.64a.48.48 0 01-.477.477h-1.214a.481.481 0 01-.477-.476V9.866c0-.26.217-.477.477-.477h1.215a.48.48 0 01.476.477v1.17z" fill="#000"/></svg>