<svg width="19" height="19" fill="none" xmlns="http://www.w3.org/2000/svg"><path fill-rule="evenodd" clip-rule="evenodd" d="M12.713 16.494c4.787-2.2 5.335-8.162 4.697-10.358-.268-.923-2.84-3.974-9.343-2.01-5.201 1.571-6.32 4.48-6.23 5.739.615 2.572 1.662 3.993 4.486 5.974 2.26 1.585 5.1 1.248 6.39.655zm-.771-1.18c1.813-.492 3.497-3.266 3.897-4.61-2.873 3.109-7.856 3.223-9.988 2.891 1.696 1.541 3.43 2.439 6.091 1.718zm3.694-9.178c.885.91 1.497 3.099-3.71 5.458-3.285 1.14-7.215 1.579-8.47-1.202-.381-.89-.006-3.088 4.535-4.759 4.54-1.67 6.8-.368 7.645.503z" fill="#153862"/></svg>