<svg width="34" height="35" fill="none" xmlns="http://www.w3.org/2000/svg"><circle cx="17" cy="17.5" r="17" fill="#fff"/><path d="M22.302 19.874c.446-.446.51-1.083.127-1.72-.318-.51-.892-.765-1.529-.637-.255.064-.51.19-.765.382-1.975 1.338-4.65 1.274-6.626-.064l-.382-.19c-.701-.32-1.402-.192-1.785.445-.446.637-.382 1.338.192 1.912.127.127.255.19.318.318l.064.064c.892.7 1.975 1.147 3.377 1.338l-.828.828-2.167 2.167c-.19.19-.446.51-.446.956 0 .573.319 1.146.892 1.401.191.128.383.128.574.128.318 0 .7-.128.956-.446l2.484-2.485.064-.064s.064 0 .064.064c.51.573 1.083 1.083 1.593 1.656l.764.765c.319.319.574.446.956.446.574.064 1.21-.319 1.466-.892a1.275 1.275 0 00-.319-1.53c-.637-.636-1.274-1.337-1.975-1.974l-1.083-1.084c.573-.063 1.21-.19 1.784-.446.956-.318 1.656-.764 2.23-1.338z" fill="#000"/><path d="M16.822 18.09c2.74 0 4.97-2.166 4.97-4.906 0-1.338-.51-2.612-1.465-3.568-.956-.956-2.167-1.466-3.441-1.466-2.74 0-4.906 2.23-4.97 4.907 0 1.338.51 2.548 1.465 3.504.893 1.02 2.103 1.53 3.441 1.53zm-1.402-6.37a1.977 1.977 0 011.402-.574c1.147 0 1.975.892 1.975 1.975 0 1.147-.892 1.976-1.975 1.976-1.147 0-1.975-.893-1.975-1.976 0-.51.191-1.02.573-1.401z" fill="#000"/><path d="M22.302 19.874c.446-.446.51-1.083.127-1.72-.318-.51-.892-.765-1.529-.637-.255.064-.51.19-.765.382-1.975 1.338-4.65 1.274-6.626-.064l-.382-.19c-.701-.32-1.402-.192-1.785.445-.446.637-.382 1.338.192 1.912.127.127.255.19.318.318l.064.064c.892.7 1.975 1.147 3.377 1.338l-.828.828-2.167 2.167c-.19.19-.446.51-.446.956 0 .573.319 1.146.892 1.401.191.128.383.128.574.128.318 0 .7-.128.956-.446l2.484-2.485.064-.064s.064 0 .064.064c.51.573 1.083 1.083 1.593 1.656l.764.765c.319.319.574.446.956.446.574.064 1.21-.319 1.466-.892a1.275 1.275 0 00-.319-1.53c-.637-.636-1.274-1.337-1.975-1.974l-1.083-1.084c.573-.063 1.21-.19 1.784-.446.956-.318 1.656-.764 2.23-1.338z" fill="#000"/></svg>