<svg width="34" height="34" fill="none" xmlns="http://www.w3.org/2000/svg"><circle cx="17" cy="17.426" r="16.5" fill="#153862"/><path d="M16.624 12.642c-.977 0-1.788.422-2.435 1.267l-1.347-1.525c.37-.607.904-1.095 1.604-1.465a4.88 4.88 0 012.317-.554c1.293 0 2.303.336 3.03 1.01.752.66 1.128 1.484 1.128 2.474 0 .872-.172 1.578-.515 2.119-.343.528-.825 1.043-1.445 1.544-.08.066-.185.152-.317.258-.12.105-.218.191-.297.257a7.578 7.578 0 00-.277.238 3.362 3.362 0 00-.238.257 2.97 2.97 0 00-.218.258 1.03 1.03 0 00-.158.277 5.803 5.803 0 01-.12.317c-.039.132-.052.25-.039.356.027.106.04.238.04.396l-2.08.02c-.078-.489-.085-.918-.019-1.287.08-.383.244-.726.495-1.03.264-.317.475-.541.634-.673.171-.145.442-.356.811-.634.872-.607 1.307-1.333 1.307-2.178 0-.475-.178-.877-.534-1.207-.357-.33-.799-.495-1.327-.495zm-1.802 10.315c0-.382.146-.719.436-1.01.304-.303.68-.455 1.129-.455.409 0 .752.152 1.03.456.29.29.435.627.435 1.01 0 .435-.139.811-.416 1.128a1.36 1.36 0 01-1.05.455c-.448 0-.824-.151-1.128-.455a1.614 1.614 0 01-.436-1.129z" fill="#fff"/></svg>