<svg width="34" height="35" fill="none" xmlns="http://www.w3.org/2000/svg"><circle cx="17" cy="17.5" r="17" fill="#fff"/><path d="M12.325 20.135c-.595 0-1.105.17-1.445.595a1.99 1.99 0 00-.595 1.445c0 .595.17 1.105.595 1.445a1.99 1.99 0 001.445.595c.595 0 1.105-.17 1.445-.595a1.99 1.99 0 00.595-1.445c0-.595-.17-1.105-.595-1.445-.34-.425-.85-.595-1.445-.595zm4.845-2.72c-.85-.85-1.785-1.445-2.805-1.955-1.02-.51-2.125-.765-3.315-.85h-.085c-.17 0-.34.085-.51.17-.17.17-.255.34-.255.51v1.445c0 .17.085.34.17.425.085.17.255.17.425.255 1.7.17 3.06.85 4.25 2.04s1.87 2.635 2.04 4.25c0 .17.085.34.255.425.17.085.255.17.51.17h1.445c.17 0 .34-.085.51-.255.17-.17.17-.34.17-.51-.085-1.19-.425-2.295-.85-3.315a9.722 9.722 0 00-1.955-2.805z" fill="#000"/><path d="M24.225 18.095c-.765-1.7-1.87-3.315-3.23-4.59-1.36-1.36-2.89-2.38-4.59-3.23A14.98 14.98 0 0010.965 9c-.17 0-.34.085-.51.17-.17.17-.255.34-.255.51v1.53c0 .17.085.34.17.51.085.17.255.17.425.17 1.53.085 3.06.425 4.42 1.105 1.36.68 2.635 1.445 3.655 2.55 1.02 1.02 1.87 2.21 2.55 3.655.68 1.36 1.02 2.89 1.105 4.42 0 .17.085.34.17.425.17.085.255.17.51.17h1.53c.17 0 .34-.085.51-.255.17-.17.17-.34.17-.51 0-1.785-.425-3.57-1.19-5.355z" fill="#000"/></svg>