<svg width="25" height="24" fill="none" xmlns="http://www.w3.org/2000/svg"><path fill-rule="evenodd" clip-rule="evenodd" d="M12.934 23.328l.656-.575c5.52-4.83 8.324-9.046 8.324-12.753 0-5.25-4.088-9-8.98-9s-8.98 3.75-8.98 9c0 3.707 2.805 7.924 8.324 12.753l.656.575zm0-2.665C8.251 16.433 5.95 12.85 5.95 10c0-4.103 3.158-7 6.985-7 3.828 0 6.985 2.897 6.985 7 0 2.85-2.302 6.433-6.985 10.663zm0-15.663a4.995 4.995 0 014.99 5c0 2.761-2.235 5-4.99 5a4.995 4.995 0 01-4.989-5c0-2.761 2.234-5 4.99-5zm-2.993 5c0-1.657 1.34-3 2.993-3a2.997 2.997 0 012.994 3c0 1.657-1.34 3-2.994 3a2.997 2.997 0 01-2.993-3z" fill="#AFAFAF"/></svg>