<svg width="19" height="23" fill="none" xmlns="http://www.w3.org/2000/svg"><path fill-rule="evenodd" clip-rule="evenodd" d="M9.936 22.328l.656-.575c5.519-4.83 8.324-9.046 8.324-12.753 0-5.25-4.088-9-8.98-9C5.043 0 .956 3.75.956 9c0 3.707 2.804 7.924 8.323 12.753l.657.575zm0-2.665C5.252 15.433 2.95 11.85 2.95 9c0-4.103 3.157-7 6.985-7 3.827 0 6.984 2.897 6.984 7 0 2.85-2.301 6.434-6.984 10.663zM9.936 4a4.995 4.995 0 014.989 5c0 2.761-2.234 5-4.99 5a4.995 4.995 0 01-4.988-5c0-2.761 2.233-5 4.989-5zM6.942 9c0-1.657 1.34-3 2.994-3a2.997 2.997 0 012.993 3c0 1.657-1.34 3-2.993 3a2.997 2.997 0 01-2.994-3z" fill="#AFAFAF"/></svg>