<svg width="34" height="35" fill="none" xmlns="http://www.w3.org/2000/svg"><circle cx="17" cy="17.5" r="17" fill="#fff"/><path d="M25.335 21.848c0-.07-.07-.07-.07-.141-.283-.565-.918-1.27-1.765-2.047-.423-.352-.635-.635-.776-.776-.212-.282-.212-.494-.141-.776.07-.212.353-.565.847-1.2.282-.353.423-.564.635-.776 1.058-1.411 1.552-2.329 1.411-2.752l-.07-.07c-.071-.071-.142-.142-.283-.142-.14-.07-.353-.07-.564 0h-3.175l-.072.07c-.07.071-.07.071-.07.142-.282.776-.635 1.411-.988 2.117-.212.353-.423.706-.635.988-.212.282-.353.494-.494.635-.141.141-.282.212-.353.353-.07.07-.212.141-.212.07-.07 0-.14 0-.14-.07l-.213-.212c-.07-.07-.07-.212-.14-.353V13.38c0-.07-.071-.212-.071-.283l-.212-.211c-.07-.07-.212-.07-.282-.141a6.328 6.328 0 00-1.27-.141c-1.13 0-1.906.07-2.188.211-.141.07-.282.141-.353.283-.141.14-.141.211-.07.211.352.07.635.212.776.424l.07.14c.07.071.07.213.141.424.071.212.071.424.071.706v1.129c0 .353-.07.564-.07.776 0 .212-.071.353-.142.424-.07.14-.07.211-.14.211 0 0 0 .07-.071.07s-.142.072-.283.072a.535.535 0 01-.282-.142.85.85 0 01-.353-.352c-.141-.142-.282-.353-.423-.636-.141-.282-.353-.564-.494-.988l-.141-.282c-.07-.141-.212-.423-.353-.776-.141-.353-.282-.635-.424-.988a.949.949 0 00-.211-.282h-.07s-.072-.07-.142-.07c-.07 0-.141-.072-.212-.072h-2.54c-.283 0-.424.071-.494.142l-.07.07v.141c0 .07 0 .142.07.283.353.846.776 1.693 1.2 2.54.423.776.846 1.482 1.129 1.976.352.494.635.988.987 1.412.353.423.565.705.636.846l.282.283.212.211c.14.141.353.353.635.565.282.212.635.423.988.635.353.212.776.353 1.2.494.493.141.917.212 1.34.141h1.059a.64.64 0 00.494-.212l.07-.07c0-.07.07-.07.07-.141v-.283c0-.282 0-.494.072-.705.07-.212.07-.353.14-.494a.975.975 0 01.212-.283l.142-.14h.07c.141-.071.353 0 .494.14.212.142.423.353.565.565.14.212.352.423.635.706.282.282.494.494.635.564l.212.141c.14.071.282.142.494.212.211.07.352.07.494.07l2.399-.07c.212 0 .423-.07.564-.141.142-.07.212-.141.212-.282v-.283c-.141-.14-.141-.211-.141-.282z" fill="#000"/></svg>