<svg width="34" height="35" viewBox="0 0 34 35" fill="none" xmlns="http://www.w3.org/2000/svg">
<circle cx="17" cy="17.5" r="17" fill="white"/>
<path d="M24.6502 12.2455C24.6502 10.9727 23.5271 9.84961 22.2543 9.84961H12.596C11.3232 9.84961 10.2002 10.9727 10.2002 12.2455V21.9037C10.2002 23.1765 11.3232 24.2996 12.596 24.2996H17.4626V18.8341H15.6657V16.4382H17.4626V15.4649C17.4626 13.8177 18.6606 12.3952 20.158 12.3952H22.1046V14.7911H20.158C19.9334 14.7911 19.7087 15.0157 19.7087 15.4649V16.4382H22.1046V18.8341H19.7087V24.2996H22.2543C23.5271 24.2996 24.6502 23.1765 24.6502 21.9037V12.2455Z" fill="black"/>
</svg>
