<svg width="25" height="24" viewBox="0 0 25 24" fill="none" xmlns="http://www.w3.org/2000/svg">
<path fill-rule="evenodd" clip-rule="evenodd" d="M12.9341 23.3276L13.5904 22.7533C19.1092 17.9237 21.9143 13.7068 21.9143 10C21.9143 4.75066 17.8262 1 12.9341 1C8.04191 1 3.95386 4.75066 3.95386 10C3.95386 13.7068 6.75899 17.9237 12.2778 22.7533L12.9341 23.3276ZM12.9341 20.6634C8.251 16.4335 5.94946 12.8492 5.94946 10C5.94946 5.8966 9.10662 3 12.9341 3C16.7615 3 19.9187 5.8966 19.9187 10C19.9187 12.8492 17.6172 16.4335 12.9341 20.6634ZM12.9341 5C15.6894 5 17.9231 7.23858 17.9231 10C17.9231 12.7614 15.6894 15 12.9341 15C10.1787 15 7.94507 12.7614 7.94507 10C7.94507 7.23858 10.1787 5 12.9341 5ZM9.94067 10C9.94067 8.34315 11.2809 7 12.9341 7C14.5873 7 15.9275 8.34315 15.9275 10C15.9275 11.6569 14.5873 13 12.9341 13C11.2809 13 9.94067 11.6569 9.94067 10Z" fill="#AFAFAF"/>
</svg>
